HIERARCHY
ROOT newVegas:Hips
{
	OFFSET 0.000000 96.479958 0.000000
	CHANNELS 6 Xposition Yposition Zposition Xrotation Yrotation Zrotation
	JOINT newVegas:Pelvis
	{
		OFFSET 0.000000 0.000000 0.000000
		CHANNELS 3 Xrotation Yrotation Zrotation
		JOINT newVegas:LeftUpLeg
		{
			OFFSET 18.735201 -5.666702 -4.541200
			CHANNELS 3 Xrotation Yrotation Zrotation
			JOINT newVegas:LeftLeg
			{
				OFFSET -0.021200 -31.938179 0.493100
				CHANNELS 3 Xrotation Yrotation Zrotation
				JOINT newVegas:LeftFoot
				{
					OFFSET 0.021200 -31.938179 -4.336299
					CHANNELS 3 Xrotation Yrotation Zrotation
					JOINT newVegas:LeftToeBase
					{
						OFFSET 0.943001 -26.722000 15.023500
						CHANNELS 3 Xrotation Yrotation Zrotation
						End Site
						{
							OFFSET 0.000000 30.670183 0.000000
						}
					}
				}
				JOINT newVegas:Left_PantLeg
				{
					OFFSET 0.663870 -9.044666 -1.108900
					CHANNELS 3 Xrotation Yrotation Zrotation
					End Site
					{
						OFFSET 1.415995 20.635357 0.000000
					}
				}
			}
		}
		JOINT newVegas:RightUpLeg
		{
			OFFSET -18.735201 -5.666702 -4.541200
			CHANNELS 3 Xrotation Yrotation Zrotation
			JOINT newVegas:RightLeg
			{
				OFFSET 0.018946 -31.938133 0.493100
				CHANNELS 3 Xrotation Yrotation Zrotation
				JOINT newVegas:RightFoot
				{
					OFFSET -0.018946 -31.938126 -4.336299
					CHANNELS 3 Xrotation Yrotation Zrotation
					JOINT newVegas:RightToeBase
					{
						OFFSET -0.943001 -26.722004 15.023500
						CHANNELS 3 Xrotation Yrotation Zrotation
						End Site
						{
							OFFSET 0.000000 30.670187 0.000000
						}
					}
				}
				JOINT newVegas:Right_PantLeg
				{
					OFFSET -0.661674 -9.044716 -1.108900
					CHANNELS 3 Xrotation Yrotation Zrotation
					End Site
					{
						OFFSET -1.415958 20.635269 0.000000
					}
				}
			}
		}
	}
	JOINT newVegas:Spine
	{
		OFFSET 0.000000 10.199997 -0.299500
		CHANNELS 3 Xrotation Yrotation Zrotation
		JOINT newVegas:Spine1
		{
			OFFSET 0.000000 11.900002 -1.516600
			CHANNELS 3 Xrotation Yrotation Zrotation
			JOINT newVegas:Spine2
			{
				OFFSET 0.000000 13.600006 -2.842500
				CHANNELS 3 Xrotation Yrotation Zrotation
				JOINT newVegas:Neck
				{
					OFFSET 0.000000 9.624100 -2.890100
					CHANNELS 3 Xrotation Yrotation Zrotation
					JOINT newVegas:Head
					{
						OFFSET 0.000000 14.068802 -1.351900
						CHANNELS 3 Xrotation Yrotation Zrotation
						JOINT newVegas:Hair_Back
						{
							OFFSET 0.000000 3.231903 -17.524799
							CHANNELS 3 Xrotation Yrotation Zrotation
							End Site
							{
								OFFSET 0.000000 19.849884 0.000000
							}
						}
						JOINT newVegas:Hair_Front
						{
							OFFSET 0.000000 31.260406 4.573800
							CHANNELS 3 Xrotation Yrotation Zrotation
							JOINT newVegas:Hair_Front1
							{
								OFFSET 0.000000 2.284103 11.993300
								CHANNELS 3 Xrotation Yrotation Zrotation
								JOINT newVegas:Hair_Front2
								{
									OFFSET 0.000000 2.284103 11.993300
									CHANNELS 3 Xrotation Yrotation Zrotation
									End Site
									{
										OFFSET 0.000000 12.208862 0.000000
									}
								}
							}
						}
						JOINT newVegas:Jowel
						{
							OFFSET 0.000000 -7.458206 6.864100
							CHANNELS 3 Xrotation Yrotation Zrotation
							End Site
							{
								OFFSET 0.000000 19.849884 0.000000
							}
						}
					}
				}
				JOINT newVegas:LeftShoulder
				{
					OFFSET 15.263000 10.923401 -0.547700
					CHANNELS 3 Xrotation Yrotation Zrotation
					JOINT newVegas:LeftArm
					{
						OFFSET 25.438599 -2.830597 -13.032500
						CHANNELS 3 Xrotation Yrotation Zrotation
						JOINT newVegas:LeftForeArm
						{
							OFFSET 29.960503 0.000000 0.000000
							CHANNELS 3 Xrotation Yrotation Zrotation
							JOINT newVegas:LeftHand
							{
								OFFSET 27.849251 0.000000 0.000000
								CHANNELS 3 Xrotation Yrotation Zrotation
								JOINT newVegas:LeftHandThumb1
								{
									OFFSET 4.487587 -3.305161 6.305391
									CHANNELS 3 Xrotation Yrotation Zrotation
									JOINT newVegas:LeftHandThumb2
									{
										OFFSET 5.480453 -3.164139 3.164143
										CHANNELS 3 Xrotation Yrotation Zrotation
										JOINT newVegas:LeftHandThumb3
										{
											OFFSET 5.159721 -2.978973 2.978967
											CHANNELS 3 Xrotation Yrotation Zrotation
											End Site
											{
												OFFSET 2.494507 5.926697 1.738678
											}
										}
									}
								}
								JOINT newVegas:LeftHandIndex1
								{
									OFFSET 18.578728 -0.527832 5.208049
									CHANNELS 3 Xrotation Yrotation Zrotation
									JOINT newVegas:LeftHandIndex2
									{
										OFFSET 3.192009 0.000000 0.000000
										CHANNELS 3 Xrotation Yrotation Zrotation
										JOINT newVegas:LeftHandIndex3
										{
											OFFSET 3.835129 0.000000 0.000000
											CHANNELS 3 Xrotation Yrotation Zrotation
											End Site
											{
												OFFSET -0.034599 3.816971 0.371180
											}
										}
									}
								}
								JOINT newVegas:LeftHandMiddle1
								{
									OFFSET 18.476105 0.000000 0.000000
									CHANNELS 3 Xrotation Yrotation Zrotation
									JOINT newVegas:LeftHandMiddle2
									{
										OFFSET 3.324875 0.000000 0.000000
										CHANNELS 3 Xrotation Yrotation Zrotation
										JOINT newVegas:LeftHandMiddle3
										{
											OFFSET 4.596550 0.000000 0.000000
											CHANNELS 3 Xrotation Yrotation Zrotation
											End Site
											{
												OFFSET 0.057701 4.578827 0.399218
											}
										}
									}
								}
								JOINT newVegas:LeftHandRing1
								{
									OFFSET 17.732719 0.121887 -4.201567
									CHANNELS 3 Xrotation Yrotation Zrotation
									JOINT newVegas:LeftHandRing2
									{
										OFFSET 2.733170 0.000000 0.000000
										CHANNELS 3 Xrotation Yrotation Zrotation
										JOINT newVegas:LeftHandRing3
										{
											OFFSET 3.178268 0.000000 0.000000
											CHANNELS 3 Xrotation Yrotation Zrotation
											End Site
											{
												OFFSET 0.119102 3.170624 0.185394
											}
										}
									}
								}
								JOINT newVegas:LeftHandPinky1
								{
									OFFSET 15.989624 -0.606689 -7.535461
									CHANNELS 3 Xrotation Yrotation Zrotation
									JOINT newVegas:LeftHandPinky2
									{
										OFFSET 2.538986 0.000000 0.000000
										CHANNELS 3 Xrotation Yrotation Zrotation
										JOINT newVegas:LeftHandPinky3
										{
											OFFSET 2.593102 0.000000 0.000000
											CHANNELS 3 Xrotation Yrotation Zrotation
											End Site
											{
												OFFSET -0.150902 2.584198 0.152708
											}
										}
									}
								}
							}
							JOINT newVegas:Left_Sleeve
							{
								OFFSET 0.267448 -0.649796 0.577675
								CHANNELS 3 Xrotation Yrotation Zrotation
								End Site
								{
									OFFSET 0.000000 15.991241 0.000000
								}
							}
							JOINT newVegas:Left_CapeC
							{
								OFFSET 15.715958 -8.608795 -6.935905
								CHANNELS 3 Xrotation Yrotation Zrotation
								JOINT newVegas:Left_CapeC1
								{
									OFFSET 0.000000 -8.688499 0.000000
									CHANNELS 3 Xrotation Yrotation Zrotation
									End Site
									{
										OFFSET 0.000000 8.688499 0.000000
									}
								}
							}
						}
						JOINT newVegas:Left_CapeB
						{
							OFFSET 26.118385 -8.608795 -7.079235
							CHANNELS 3 Xrotation Yrotation Zrotation
							JOINT newVegas:Left_CapeB1
							{
								OFFSET 0.000000 -8.688499 0.000000
								CHANNELS 3 Xrotation Yrotation Zrotation
								End Site
								{
									OFFSET 0.000000 8.688499 0.000000
								}
							}
						}
						JOINT newVegas:Left_CapeA
						{
							OFFSET 5.115639 -8.608795 -10.395809
							CHANNELS 3 Xrotation Yrotation Zrotation
							JOINT newVegas:Left_CapeA1
							{
								OFFSET 0.000000 -8.688499 0.000000
								CHANNELS 3 Xrotation Yrotation Zrotation
								End Site
								{
									OFFSET 0.000000 8.688499 0.000000
								}
							}
						}
					}
				}
				JOINT newVegas:RightShoulder
				{
					OFFSET -15.263000 10.923401 -0.547700
					CHANNELS 3 Xrotation Yrotation Zrotation
					JOINT newVegas:RightArm
					{
						OFFSET -25.438599 -2.830597 -13.032500
						CHANNELS 3 Xrotation Yrotation Zrotation
						JOINT newVegas:RightForeArm
						{
							OFFSET -29.960503 0.000000 0.000000
							CHANNELS 3 Xrotation Yrotation Zrotation
							JOINT newVegas:RightHand
							{
								OFFSET -27.849251 0.000000 0.000000
								CHANNELS 3 Xrotation Yrotation Zrotation
								JOINT newVegas:RightHandThumb1
								{
									OFFSET -4.487587 -3.305161 6.305391
									CHANNELS 3 Xrotation Yrotation Zrotation
									JOINT newVegas:RightHandThumb2
									{
										OFFSET -5.480453 -3.164139 3.164143
										CHANNELS 3 Xrotation Yrotation Zrotation
										JOINT newVegas:RightHandThumb3
										{
											OFFSET -5.159721 -2.978973 2.978967
											CHANNELS 3 Xrotation Yrotation Zrotation
											End Site
											{
												OFFSET -2.494507 5.926697 1.738678
											}
										}
									}
								}
								JOINT newVegas:RightHandIndex1
								{
									OFFSET -18.578728 -0.527832 5.208049
									CHANNELS 3 Xrotation Yrotation Zrotation
									JOINT newVegas:RightHandIndex2
									{
										OFFSET -3.192009 0.000000 0.000000
										CHANNELS 3 Xrotation Yrotation Zrotation
										JOINT newVegas:RightHandIndex3
										{
											OFFSET -3.835129 0.000000 0.000000
											CHANNELS 3 Xrotation Yrotation Zrotation
											End Site
											{
												OFFSET 0.034599 3.816971 0.371180
											}
										}
									}
								}
								JOINT newVegas:RightHandMiddle1
								{
									OFFSET -18.476105 0.000000 0.000000
									CHANNELS 3 Xrotation Yrotation Zrotation
									JOINT newVegas:RightHandMiddle2
									{
										OFFSET -3.324875 0.000000 0.000000
										CHANNELS 3 Xrotation Yrotation Zrotation
										JOINT newVegas:RightHandMiddle3
										{
											OFFSET -4.596550 0.000000 0.000000
											CHANNELS 3 Xrotation Yrotation Zrotation
											End Site
											{
												OFFSET -0.057701 4.578827 0.399218
											}
										}
									}
								}
								JOINT newVegas:RightHandRing1
								{
									OFFSET -17.732719 0.121887 -4.201567
									CHANNELS 3 Xrotation Yrotation Zrotation
									JOINT newVegas:RightHandRing2
									{
										OFFSET -2.733170 0.000000 0.000000
										CHANNELS 3 Xrotation Yrotation Zrotation
										JOINT newVegas:RightHandRing3
										{
											OFFSET -3.178268 0.000000 0.000000
											CHANNELS 3 Xrotation Yrotation Zrotation
											End Site
											{
												OFFSET -0.119102 3.170624 0.185394
											}
										}
									}
								}
								JOINT newVegas:RightHandPinky1
								{
									OFFSET -15.989624 -0.606689 -7.535461
									CHANNELS 3 Xrotation Yrotation Zrotation
									JOINT newVegas:RightHandPinky2
									{
										OFFSET -2.538986 0.000000 0.000000
										CHANNELS 3 Xrotation Yrotation Zrotation
										JOINT newVegas:RightHandPinky3
										{
											OFFSET -2.593102 0.000000 0.000000
											CHANNELS 3 Xrotation Yrotation Zrotation
											End Site
											{
												OFFSET 0.150902 2.584198 0.152708
											}
										}
									}
								}
							}
							JOINT newVegas:Right_CapeC
							{
								OFFSET -15.715958 -8.608795 -6.935905
								CHANNELS 3 Xrotation Yrotation Zrotation
								JOINT newVegas:Right_CapeC1
								{
									OFFSET 0.000000 -8.688499 0.000000
									CHANNELS 3 Xrotation Yrotation Zrotation
									End Site
									{
										OFFSET 0.000000 8.688499 0.000000
									}
								}
							}
							JOINT newVegas:Right_Sleeve
							{
								OFFSET -0.267448 -0.649994 0.577675
								CHANNELS 3 Xrotation Yrotation Zrotation
								End Site
								{
									OFFSET 0.000000 15.991302 0.000000
								}
							}
						}
						JOINT newVegas:Right_CapeA
						{
							OFFSET -5.115540 -8.608795 -10.395824
							CHANNELS 3 Xrotation Yrotation Zrotation
							JOINT newVegas:Right_CapeA1
							{
								OFFSET 0.000000 -8.688499 0.000000
								CHANNELS 3 Xrotation Yrotation Zrotation
								End Site
								{
									OFFSET 0.000000 8.688499 0.000000
								}
							}
						}
						JOINT newVegas:Right_CapeB
						{
							OFFSET -26.118187 -8.608795 -7.079266
							CHANNELS 3 Xrotation Yrotation Zrotation
							JOINT newVegas:Right_CapeB1
							{
								OFFSET 0.000000 -8.688499 0.000000
								CHANNELS 3 Xrotation Yrotation Zrotation
								End Site
								{
									OFFSET 0.000000 8.688499 0.000000
								}
							}
						}
					}
				}
				JOINT newVegas:Left_Collar
				{
					OFFSET 18.625099 8.655502 8.828100
					CHANNELS 3 Xrotation Yrotation Zrotation
					JOINT newVegas:Left_Collar1
					{
						OFFSET 14.783401 10.540405 -1.259500
						CHANNELS 3 Xrotation Yrotation Zrotation
						End Site
						{
							OFFSET 0.000000 18.199875 0.000000
						}
					}
				}
				JOINT newVegas:Collar_Back
				{
					OFFSET 0.000000 15.630707 -20.132601
					CHANNELS 3 Xrotation Yrotation Zrotation
					End Site
					{
						OFFSET 0.000000 22.523010 0.000000
					}
				}
				JOINT newVegas:Left_Peck
				{
					OFFSET 17.239599 -5.132599 25.482599
					CHANNELS 3 Xrotation Yrotation Zrotation
					End Site
					{
						OFFSET 0.000000 22.523010 0.000000
					}
				}
				JOINT newVegas:Right_Peck
				{
					OFFSET -17.239599 -5.132202 25.482599
					CHANNELS 3 Xrotation Yrotation Zrotation
					End Site
					{
						OFFSET 0.000000 22.523010 0.000000
					}
				}
				JOINT newVegas:Right_Collar
				{
					OFFSET -18.625099 8.655792 8.828100
					CHANNELS 3 Xrotation Yrotation Zrotation
					JOINT newVegas:Right_Collar1
					{
						OFFSET -14.783401 10.539993 -1.259500
						CHANNELS 3 Xrotation Yrotation Zrotation
						End Site
						{
							OFFSET 0.000000 18.199631 0.000000
						}
					}
				}
			}
		}
		JOINT newVegas:Belly
		{
			OFFSET 0.000000 -6.540398 9.014299
			CHANNELS 3 Xrotation Yrotation Zrotation
			End Site
			{
				OFFSET 0.000000 11.566666 0.000000
			}
		}
	}
	JOINT newVegas:ElvisFacialAnim_Joint
	{
		OFFSET 1.000000 -95.330101 -8.825800
		CHANNELS 3 Xrotation Yrotation Zrotation
		End Site
		{
			OFFSET 0.000000 35.315800 0.000000
		}
	}
}
MOTION
Frames: 4
Frame Time: 0.033333
-3.439497 32.361710 7.396220 5.389148 -19.328080 5.940101 -0.000000 0.000000 -0.000000 -153.290769 -20.249530 6.718318 122.416497 1.958701 0.780342 30.142451 3.610923 -8.285434 0.000000 -0.000000 -0.000000 -0.000002 0.000000 -0.000000 -86.743512 0.081594 -18.365334 146.776216 -2.521538 -2.870376 29.705049 -23.083364 -10.622571 -0.000001 0.000001 -0.000002 0.000000 0.000000 0.000000 20.670642 -12.378016 -4.768187 5.040327 -2.382913 -1.729125 5.454247 -4.547975 0.328093 1.926963 2.432155 -0.527453 1.926965 2.432142 -0.527455 0.000001 -0.000002 0.000001 1.926912 2.432156 -0.527453 1.926950 2.432134 -0.527447 -0.000001 0.000000 -0.000001 0.000001 -0.000002 0.000001 3.271908 -13.946504 -1.973416 -35.636198 -8.423176 -32.266483 -0.000363 -97.350837 -0.000374 -149.102483 -27.134641 10.125803 9.873047 -5.863796 -9.427549 1.000142 0.731307 -1.438317 0.000002 -0.000003 -0.000005 -3.156945 0.551121 -39.712830 4.788078 5.754034 -79.514870 0.000000 -0.000001 -0.000000 1.015371 5.899900 -50.379151 5.070875 5.798985 -82.324174 0.000001 0.000002 0.000000 2.566157 7.151520 -54.470964 5.460182 5.838028 -86.162775 -0.000002 -0.000004 -0.000004 4.135205 8.114487 -58.588680 4.970024 5.784564 -81.325013 0.000001 -0.000005 -0.000004 -0.000002 -0.000002 -0.000003 -0.000002 -0.000002 -0.000003 -0.000003 -0.000002 -0.000003 0.000001 -0.000001 0.000003 0.000001 -0.000002 0.000003 0.000001 -0.000001 0.000003 0.000000 -0.000001 0.000003 -0.146729 25.944856 1.009430 -24.700973 20.507233 46.628759 0.000132 110.266000 -0.000115 -37.776571 -20.993076 8.018550 20.470540 7.475575 18.843590 4.151733 -12.160906 -33.847986 0.000003 -0.000003 -0.000001 -0.887084 1.427986 12.684544 1.917407 -3.767472 53.934326 0.000000 0.000000 -0.000000 0.770902 -5.199581 54.618823 5.563861 -4.568224 101.238573 0.000001 0.000003 0.000001 6.934472 -8.544256 63.908769 2.909307 -4.317386 67.934728 -0.000000 0.000001 -0.000000 8.373410 -8.171808 73.989937 2.173686 -3.940946 57.745397 0.000000 -0.000000 0.000001 -0.000004 0.000001 -0.000000 -0.000000 0.000001 0.000000 -0.000004 0.000001 -0.000001 -0.000001 0.000000 -0.000001 -0.000002 -0.000001 -0.000001 -0.000001 0.000000 -0.000001 -0.000002 -0.000001 0.000001 -0.000000 0.000000 0.000001 -0.000000 0.000000 0.000001 -0.000000 0.000000 0.000001 -0.000000 0.000000 0.000001 -0.000000 0.000000 0.000001 -0.000000 0.000000 0.000001 -0.000000 0.000000 0.000001 0.000000 -0.000000 0.000000 -0.000000 0.000000 -0.000000 
-2.845617 35.321678 4.608123 3.385870 -18.868865 6.160379 0.000000 -0.000000 0.000000 -142.355363 -16.407224 10.974475 115.718540 1.001803 0.019138 27.623437 3.666303 -6.483796 -0.000000 -0.000000 0.000000 0.000001 0.000000 -0.000000 -71.659005 19.133691 -13.980235 157.382612 13.291260 -1.600561 -2.031469 -23.180923 9.878601 0.000001 0.000002 0.000000 0.000000 0.000001 -0.000002 23.835975 -10.985289 -4.831431 5.555376 -2.259177 -1.647183 5.896180 -4.038663 0.068883 2.173576 2.003645 -0.619556 2.173553 2.003673 -0.619571 -0.000002 -0.000000 -0.000000 2.173582 2.003666 -0.619561 2.173576 2.003667 -0.619564 -0.000001 0.000003 -0.000001 -0.000002 -0.000000 -0.000001 2.586976 -19.870683 -2.481748 -41.050646 -6.505561 -36.948550 0.000698 -91.636687 0.000628 -163.145215 -27.505448 5.712449 8.541379 -5.124655 -10.275451 1.389984 -0.180020 -1.190522 -0.000000 -0.000000 -0.000003 -3.271924 0.599018 -40.654700 4.963521 5.783607 -81.260174 0.000001 0.000003 0.000001 1.076136 5.994995 -51.723155 5.266859 5.821924 -84.260007 -0.000002 0.000000 -0.000002 2.644953 7.204973 -55.927983 5.693107 5.848934 -88.450212 -0.000001 -0.000002 0.000001 4.254138 8.142833 -60.000692 5.155451 5.809699 -83.160654 0.000001 -0.000005 -0.000002 -0.000001 0.000000 0.000001 -0.000001 0.000000 0.000001 -0.000002 0.000001 0.000001 -0.000004 0.000001 -0.000000 -0.000003 0.000000 0.000001 -0.000004 0.000001 -0.000000 -0.000005 0.000001 -0.000000 1.072597 26.473967 -2.897866 -24.714420 20.479571 47.319547 0.000136 108.732978 -0.000155 -36.737545 -19.283755 3.051949 20.470543 7.475575 18.843589 4.151733 -12.160907 -33.847986 0.000002 0.000001 -0.000000 -0.887085 1.427985 12.684538 1.917407 -3.767471 53.934333 0.000001 0.000000 -0.000000 0.770901 -5.199581 54.618823 5.563861 -4.568222 101.238573 0.000001 0.000000 -0.000000 6.934470 -8.544255 63.908769 2.909312 -4.317385 67.934728 0.000001 0.000001 0.000001 8.373406 -8.171807 73.989937 2.173691 -3.940950 57.745397 0.000001 -0.000004 0.000002 0.000000 0.000000 -0.000000 -0.000001 -0.000001 -0.000002 0.000000 0.000000 -0.000000 -0.000000 0.000001 0.000002 0.000000 0.000001 0.000004 -0.000000 0.000001 0.000002 0.000001 0.000001 0.000006 -0.000000 -0.000001 -0.000000 -0.000000 -0.000001 -0.000000 -0.000000 -0.000001 -0.000000 -0.000000 -0.000001 -0.000000 -0.000000 -0.000001 -0.000000 -0.000000 -0.000001 -0.000000 -0.000000 -0.000001 -0.000000 0.000002 -0.000001 -0.000000 0.000000 -0.000000 0.000000 
-2.234925 37.385422 1.301129 0.704808 -18.797913 6.698518 0.000000 -0.000001 0.000000 -132.725602 -13.442603 14.428336 107.348703 -1.092289 -1.336726 29.185740 3.239989 -5.601909 0.000000 -0.000000 0.000000 -0.000002 0.000000 -0.000000 -9.011787 24.712077 -45.911616 154.192805 65.403002 2.928108 -72.142849 -11.327088 -10.643911 -0.000003 -0.000002 0.000001 -0.000002 0.000000 0.000001 28.225644 -9.118139 -4.973453 6.147773 -1.885126 -1.603423 6.398016 -3.210086 -0.308933 2.260870 1.510509 -0.664498 2.260867 1.510512 -0.664495 -0.000003 -0.000002 0.000001 2.260933 1.510525 -0.664503 2.260915 1.510498 -0.664497 0.000000 -0.000001 0.000000 -0.000003 -0.000002 0.000001 2.077338 -26.879105 -2.486838 -47.110806 -6.659951 -39.731023 0.000065 -80.794820 0.000064 -179.851722 -25.549952 -0.551001 8.548357 -5.128614 -10.271005 1.384827 -0.182515 -1.194044 0.000001 0.000001 0.000003 -3.271304 0.598763 -40.649748 4.962581 5.783448 -81.250995 -0.000000 0.000004 -0.000001 1.075798 5.994472 -51.716075 5.265844 5.821814 -84.249782 0.000000 0.000001 0.000001 2.644538 7.204693 -55.920319 5.691880 5.848884 -88.438170 0.000000 -0.000001 0.000001 4.253506 8.142666 -59.993253 5.154493 5.809577 -83.150983 -0.000000 -0.000002 0.000000 0.000000 -0.000001 -0.000003 0.000000 -0.000001 -0.000003 -0.000001 -0.000000 -0.000003 0.000002 0.000000 0.000001 0.000002 -0.000001 0.000000 0.000002 0.000000 0.000001 0.000000 0.000001 0.000001 1.207232 30.062422 -2.649552 -24.115895 18.155230 42.069102 0.000003 107.481380 -0.000002 -36.240598 -19.853893 -2.174024 20.470547 7.475575 18.843592 4.151730 -12.160907 -33.847989 0.000001 -0.000001 0.000001 -0.887083 1.427987 12.684537 1.917408 -3.767473 53.934326 -0.000001 0.000000 -0.000000 0.770902 -5.199581 54.618823 5.563861 -4.568225 101.238580 0.000001 0.000000 -0.000000 6.934474 -8.544257 63.908769 2.909310 -4.317384 67.934735 0.000001 -0.000001 -0.000000 8.373408 -8.171809 73.989937 2.173693 -3.940945 57.745397 -0.000003 -0.000000 0.000001 -0.000002 -0.000001 -0.000001 -0.000002 0.000000 0.000001 -0.000002 -0.000001 0.000001 -0.000001 0.000001 0.000002 -0.000000 0.000002 0.000001 -0.000001 0.000001 0.000002 -0.000000 0.000002 0.000002 -0.000000 0.000001 -0.000000 -0.000000 0.000001 -0.000000 -0.000000 0.000001 -0.000000 -0.000000 0.000001 -0.000000 -0.000000 0.000001 -0.000000 -0.000000 0.000001 -0.000000 -0.000000 0.000001 -0.000000 -0.000000 0.000000 0.000000 0.000000 -0.000001 0.000000 
-1.430382 39.444977 -2.963553 0.079697 -17.623886 7.048291 0.000000 0.000000 0.000000 -124.976288 -10.596341 16.549852 95.781819 -2.899636 -3.476429 32.785625 2.420737 -5.227727 0.000000 0.000000 0.000000 0.000003 -0.000000 -0.000000 -7.375497 4.569870 -36.605327 155.464955 62.664786 0.930942 -92.433107 8.944192 -24.374034 -0.000003 0.000001 0.000001 0.000004 -0.000001 -0.000001 31.331003 -7.320257 -4.007050 6.441764 -1.561425 -1.335097 6.605596 -2.418173 -0.471083 2.437039 1.032415 -0.715625 2.437022 1.032423 -0.715620 -0.000003 0.000000 0.000001 2.437078 1.032417 -0.715628 2.437016 1.032414 -0.715621 0.000004 -0.000001 -0.000000 -0.000003 0.000000 0.000000 1.759422 -33.066575 -3.205989 -50.976099 -13.131056 -38.597805 -0.000016 -62.835609 -0.000021 -187.811610 -16.761093 -4.421661 15.831689 -8.877118 -5.620476 -0.583882 5.009699 -2.259755 0.000001 -0.000003 -0.000001 -2.669003 0.380152 -35.614905 4.039229 5.564402 -71.931844 0.000001 -0.000001 -0.000001 0.772469 5.477163 -44.540572 4.232358 5.623427 -73.913036 -0.000001 -0.000001 -0.000001 2.230583 6.908864 -48.140007 4.459969 5.683844 -76.223122 0.000000 -0.000001 -0.000001 3.623444 7.964224 -52.453302 4.177164 5.607297 -73.349190 -0.000000 -0.000005 -0.000000 -0.000000 -0.000001 -0.000002 -0.000000 -0.000001 -0.000002 -0.000000 -0.000001 -0.000002 -0.000002 -0.000002 0.000001 -0.000002 -0.000003 0.000001 -0.000002 -0.000002 0.000001 -0.000002 -0.000001 0.000001 1.531490 34.109845 -2.358003 -23.247534 16.544547 33.728570 -0.000329 103.537642 0.000323 -37.084454 -19.367758 -7.361435 20.470541 7.475577 18.843594 4.151730 -12.160906 -33.847983 0.000000 0.000001 0.000001 -0.887085 1.427984 12.684542 1.917407 -3.767469 53.934319 -0.000000 -0.000000 -0.000000 0.770900 -5.199579 54.618823 5.563862 -4.568221 101.238573 -0.000000 -0.000003 -0.000001 6.934472 -8.544254 63.908769 2.909307 -4.317386 67.934728 -0.000002 0.000001 0.000002 8.373406 -8.171807 73.989937 2.173686 -3.940946 57.745397 -0.000000 0.000003 0.000000 0.000000 -0.000001 0.000000 0.000000 0.000001 0.000003 0.000000 -0.000000 0.000002 -0.000001 0.000002 0.000001 -0.000001 0.000002 0.000002 -0.000001 0.000002 0.000001 -0.000001 0.000002 0.000004 -0.000000 -0.000002 0.000000 -0.000000 -0.000002 0.000000 -0.000000 -0.000002 0.000000 -0.000000 -0.000002 0.000000 -0.000000 -0.000002 0.000000 -0.000000 -0.000002 0.000000 -0.000000 -0.000002 0.000000 0.000001 0.000003 -0.000001 0.000000 0.000000 0.000000 
